<?xml version="1.0" standalone="no"?>
<!DOCTYPE svg PUBLIC "-//W3C//DTD SVG 20010904//EN"
 "http://www.w3.org/TR/2001/REC-SVG-20010904/DTD/svg10.dtd">
<svg version="1.0" xmlns="http://www.w3.org/2000/svg"
 width="788.000000pt" height="244.000000pt" viewBox="0 0 788.000000 244.000000"
 preserveAspectRatio="xMidYMid meet">

<g transform="translate(0.000000,244.000000) scale(0.100000,-0.100000)"
fill="#000000" stroke="none">
<path d="M3628 2128 c-10 -84 -35 -122 -333 -503 -288 -368 -389 -557 -370
-689 4 -25 11 -46 16 -46 5 0 7 11 3 24 -16 64 47 225 151 386 48 74 204 280
390 515 107 135 165 239 165 294 0 56 -16 70 -22 19z"/>
<path d="M2838 2093 c-3 -43 -15 -94 -33 -138 -64 -158 -180 -336 -537 -819
-90 -122 -134 -204 -118 -219 9 -9 14 -9 17 -1 7 20 97 159 129 200 59 74 268
369 359 504 154 230 226 402 205 493 -13 58 -17 54 -22 -20z"/>
<path d="M1642 2094 c-139 -69 -281 -271 -282 -401 0 -72 16 -75 23 -4 7 80
61 180 145 270 88 93 168 141 236 141 37 0 47 3 36 10 -29 18 -104 11 -158
-16z"/>
<path d="M2070 2025 c-1 -139 -80 -292 -350 -680 -238 -340 -340 -502 -340
-539 0 -14 3 -26 8 -26 4 0 29 40 56 89 27 49 114 182 194 297 316 457 391
579 431 703 22 67 28 165 11 191 -7 11 -10 1 -10 -35z"/>
<path d="M4065 1698 c-72 -25 -268 -182 -331 -265 l-27 -35 24 7 c13 4 67 49
120 100 98 93 183 153 252 175 20 6 35 16 32 21 -8 11 -32 10 -70 -3z"/>
<path d="M5310 1659 c0 -50 -51 -140 -181 -324 -169 -237 -216 -327 -191 -370
8 -16 11 -14 17 16 13 58 59 138 167 289 125 176 160 231 187 290 22 48 28
115 11 125 -6 4 -10 -7 -10 -26z"/>
<path d="M4332 1622 c-36 -122 -235 -222 -542 -272 -139 -23 -136 -21 -196
-123 -59 -100 -88 -210 -65 -245 5 -9 10 5 14 39 9 74 50 159 137 280 3 4 64
17 135 29 223 37 382 95 469 171 50 44 69 83 64 130 l-4 34 -12 -43z"/>
<path d="M5918 1622 c-8 -54 -59 -164 -102 -216 -52 -65 -53 -74 -5 -35 53 44
94 110 116 190 12 42 13 65 6 81 -9 20 -10 18 -15 -20z"/>
<path d="M6562 1600 c-32 -68 -104 -133 -406 -372 -15 -12 -18 -20 -10 -27 9
-10 62 22 125 76 7 7 61 51 119 97 144 114 210 191 210 242 0 39 -14 33 -38
-16z"/>
<path d="M6315 1603 c-154 -70 -544 -325 -505 -331 12 -2 68 29 143 80 157
108 277 180 370 223 41 18 78 38 82 44 11 19 -28 12 -90 -16z"/>
<path d="M2744 1332 c-372 -367 -464 -454 -536 -502 -57 -38 -58 -40 -30 -40
47 0 143 82 451 385 198 195 419 435 400 435 -2 0 -130 -125 -285 -278z"/>
<path d="M1356 1520 l-49 -18 41 -7 c42 -7 69 2 92 29 11 14 9 16 -11 15 -13
-1 -46 -10 -73 -19z"/>
<path d="M2165 1398 c-276 -309 -522 -557 -637 -643 -41 -31 -54 -45 -40 -45
72 0 493 418 697 693 37 49 27 47 -20 -5z"/>
<path d="M4503 1326 c11 -62 -32 -133 -166 -274 -65 -68 -86 -97 -78 -105 14
-14 29 0 138 122 46 52 93 112 105 134 23 45 27 122 8 140 -10 10 -11 6 -7
-17z"/>
<path d="M4750 1208 c-124 -109 -283 -232 -358 -275 -41 -24 -44 -28 -24 -31
12 -2 45 10 74 28 129 79 354 268 397 333 17 26 30 47 29 47 -2 -1 -55 -46
-118 -102z"/>
<path d="M5518 1068 c-135 -142 -195 -218 -171 -218 11 0 53 39 102 95 47 52
112 122 146 155 35 32 60 62 57 65 -16 16 -45 -5 -134 -97z"/>
<path d="M4036 1014 c-21 -15 -74 -43 -118 -64 -54 -25 -74 -39 -64 -43 20 -8
212 89 220 110 10 25 3 24 -38 -3z"/>
<path d="M5165 880 c-22 -15 -25 -20 -12 -20 23 0 57 18 57 30 0 15 -12 12
-45 -10z"/>
<path d="M3395 783 c-975 -38 -1842 -139 -2584 -302 -156 -35 -438 -117 -429
-126 1 -2 84 17 183 41 232 56 509 113 808 164 131 23 250 45 263 50 14 6 47
10 75 10 27 0 135 11 241 25 378 48 763 81 1228 107 304 17 1352 17 1630 0
418 -25 979 -72 1065 -88 22 -5 27 -3 19 5 -25 27 -747 89 -1289 111 -219 9
-1017 11 -1210 3z"/>
<path d="M6172 638 c2 -6 13 -12 24 -14 404 -52 887 -141 1244 -229 190 -47
221 -53 155 -29 -155 57 -782 187 -1200 249 -93 13 -183 27 -198 30 -19 3 -27
1 -25 -7z"/>
<path d="M6385 463 c-16 -2 -49 -11 -72 -20 -43 -16 -168 -15 -207 2 -13 6
-17 5 -13 -2 20 -32 181 -48 247 -25 27 10 101 56 80 50 -3 0 -18 -3 -35 -5z"/>
</g>
</svg>
